<svg width="35" height="37" viewBox="0 0 35 37" fill="none" xmlns="http://www.w3.org/2000/svg">
<path d="M30.2727 7H5.72727C4.22727 7 3 8.8 3 11V27C3 29.2 4.22727 31 5.72727 31H30.2727C31.7727 31 33 29.2 33 27V11C33 8.8 31.7727 7 30.2727 7ZM16.6364 21H12.5455V27H9.81818V21H5.72727V17H9.81818V11H12.5455V17H16.6364V21ZM22.7727 25C21.6409 25 20.7273 23.66 20.7273 22C20.7273 20.34 21.6409 19 22.7727 19C23.9045 19 24.8182 20.34 24.8182 22C24.8182 23.66 23.9045 25 22.7727 25ZM28.2273 19C27.0955 19 26.1818 17.66 26.1818 16C26.1818 14.34 27.0955 13 28.2273 13C29.3591 13 30.2727 14.34 30.2727 16C30.2727 17.66 29.3591 19 28.2273 19Z" fill="#808080"/>
</svg>
