<?xml version="1.0" encoding="UTF-8"?>
<!DOCTYPE svg PUBLIC "-//W3C//DTD SVG 1.1//EN" "http://www.w3.org/Graphics/SVG/1.1/DTD/svg11.dtd">
<svg xmlns="http://www.w3.org/2000/svg" version="1.1" width="109px" height="120px" style="shape-rendering:geometricPrecision; text-rendering:geometricPrecision; image-rendering:optimizeQuality; fill-rule:evenodd; clip-rule:evenodd" xmlns:xlink="http://www.w3.org/1999/xlink">
<g><path style="opacity:1" fill="#343a6c" d="M 41.5,-0.5 C 45.1667,-0.5 48.8333,-0.5 52.5,-0.5C 59.6226,3.42712 62.1226,9.42712 60,17.5C 58.5486,20.3034 56.3819,22.3034 53.5,23.5C 39.1228,25.7895 33.1228,19.7895 35.5,5.5C 37.1939,3.13942 39.1939,1.13942 41.5,-0.5 Z"/></g>
<g><path style="opacity:1" fill="#f5b473" d="M 42.5,6.5 C 46.9857,5.99439 50.819,7.32772 54,10.5C 55.2695,16.6239 52.7695,19.6239 46.5,19.5C 39.9068,19.3309 37.4068,15.9976 39,9.5C 40.1451,8.36362 41.3117,7.36362 42.5,6.5 Z"/></g>
<g><path style="opacity:1" fill="#f7b775" d="M 35.5,5.5 C 33.1228,19.7895 39.1228,25.7895 53.5,23.5C 51.2414,25.7555 48.408,26.7555 45,26.5C 34.1649,25.8361 29.8316,20.1694 32,9.5C 32.66,7.67634 33.8267,6.34301 35.5,5.5 Z"/></g>
<g><path style="opacity:1" fill="#31396c" d="M 41.5,67.5 C 39.5572,66.7089 38.5572,65.2089 38.5,63C 40.4081,54.1088 43.4081,45.6088 47.5,37.5C 40.7478,35.2984 34.9145,36.6317 30,41.5C 26.6415,49.7711 24.1415,58.2711 22.5,67C 22.0386,70.5448 23.3719,73.2115 26.5,75C 30.9626,76.9745 35.6292,77.8078 40.5,77.5C 47.5079,77.3337 54.5079,77.5004 61.5,78C 63.286,78.7845 64.786,79.9512 66,81.5C 67.4573,85.7411 67.7907,90.0745 67,94.5C 65.3195,102.887 63.4861,111.22 61.5,119.5C 59.5,119.5 57.5,119.5 55.5,119.5C 54.645,118.469 53.9783,117.303 53.5,116C 57.232,105.62 59.232,95.1202 59.5,84.5C 50.4483,84.8071 41.4483,84.3071 32.5,83C 19.5046,80.8547 14.6712,73.3547 18,60.5C 20.4659,52.7692 23.1326,45.1026 26,37.5C 30.59,33.1394 36.09,31.1394 42.5,31.5C 58.4226,34.3535 74.4226,35.0202 90.5,33.5C 91.1446,36.5468 90.1446,38.7135 87.5,40C 76.6037,40.8456 65.7704,40.3456 55,38.5C 53.8333,38.8333 52.6667,39.1667 51.5,39.5C 48.9175,47.9907 47.0841,56.6573 46,65.5C 44.8904,67.0368 43.3904,67.7035 41.5,67.5 Z"/></g>
<g><path style="opacity:1" fill="#f9b774" d="M 41.5,67.5 C 41.1667,70.8333 40.8333,74.1667 40.5,77.5C 35.6292,77.8078 30.9626,76.9745 26.5,75C 23.3719,73.2115 22.0386,70.5448 22.5,67C 24.1415,58.2711 26.6415,49.7711 30,41.5C 34.9145,36.6317 40.7478,35.2984 47.5,37.5C 43.4081,45.6088 40.4081,54.1088 38.5,63C 38.5572,65.2089 39.5572,66.7089 41.5,67.5 Z"/></g>
</svg>
